<svg width="33" height="32" viewBox="0 0 33 32" fill="none" xmlns="http://www.w3.org/2000/svg">
<g clip-path="url(#clip0_0_115)">
<g clip-path="url(#clip1_0_115)">
<g clip-path="url(#clip2_0_115)">
<path d="M11.1705 16.3349C11.5645 16.2533 11.9761 16.0745 12.3645 15.7942C13.481 14.9865 13.9766 13.6603 13.4702 12.8305C12.9196 11.9279 11.4135 11.9886 10.256 13.0158C9.14925 13.9714 8.91312 14.9699 8.91312 16.0194C8.91312 16.7609 9.15028 18.0849 10.5991 19.2347C11.2831 18.7062 12.0986 18.2714 13.0243 17.957L13.0366 17.9525C12.3253 17.6561 11.3981 17.0711 11.1705 16.3349ZM10.9919 13.7827C10.9919 13.4726 11.2389 13.2233 11.5436 13.2233C11.848 13.2233 12.0953 13.4738 12.0953 13.7838C12.0953 14.0939 11.848 14.3432 11.5436 14.3432C11.239 14.3432 10.9919 14.0927 10.9919 13.7827Z" fill="#E74040"/>
</g>
</g>
<g clip-path="url(#clip3_0_115)">
<g clip-path="url(#clip4_0_115)">
<path d="M24.107 16.0204C24.1037 14.9699 23.8687 13.9714 22.7609 13.0158C21.6044 11.9896 20.0972 11.9267 19.5465 12.8305C19.0412 13.6602 19.5355 14.9865 20.6521 15.7942C21.0406 16.0745 21.4522 16.2532 21.846 16.3348C21.7092 16.7773 21.2932 17.2275 20.6588 17.6071C19.7865 18.1278 19.3152 18.1922 13.7337 20.0456C11.6682 20.7474 10.439 22.142 10.439 23.7763C10.439 24.9404 11.0337 25.8385 11.8601 26.4962C12.3799 25.961 13.0287 25.4966 13.7868 25.1246C12.914 24.6833 12.6447 24.3489 12.6447 23.7763C12.6447 22.8311 14.534 22.2907 15.4056 22.0031V24.3953L17.6124 23.411V22.0042C18.4853 22.2933 20.3698 22.833 20.3698 23.7763C20.3698 25.3455 15.8763 26.2709 13.9644 27.5897C13.0365 28.2329 12.5376 29.0506 12.5376 30.0117C12.5376 30.5634 12.6017 31.2475 13.5704 31.9272C13.8451 32.1466 14.2268 31.8261 14.0484 31.5177C13.4082 30.2367 14.0879 29.5968 15.4077 29.0428V30.8943C15.4077 31.5034 15.902 31.9977 16.5111 31.9977C17.1202 31.9977 17.6145 31.5034 17.6145 30.8943V29.0439C18.8823 29.5757 19.6802 30.3272 18.9706 31.5177C18.7948 31.8201 19.1692 32.1493 19.4473 31.9272C20.3852 31.2165 20.4591 30.6074 20.4591 30.026C20.4591 29.1312 19.9693 28.2628 19.0401 27.5974C20.9182 26.9188 22.5799 25.7768 22.5799 23.7785C22.5799 22.3981 21.7028 21.1888 20.1867 20.423C20.8949 20.1681 21.2513 19.9971 21.7247 19.7147C23.7981 18.4755 24.107 16.8679 24.107 16.0204ZM21.4743 14.3432C21.1697 14.3432 20.9226 14.0927 20.9226 13.7827C20.9226 13.4726 21.1697 13.2221 21.4743 13.2221C21.7787 13.2221 22.026 13.4726 22.026 13.7827C22.026 14.0927 21.7788 14.3432 21.4743 14.3432Z" fill="#E74040"/>
</g>
</g>
<g clip-path="url(#clip5_0_115)">
<g clip-path="url(#clip6_0_115)">
<path d="M31.9476 2.20896H24.3909C22.9085 2.20896 21.7961 2.86425 20.8391 3.82132C19.7994 4.86101 19.2588 7.17218 17.6033 7.17218V4.10759C18.2602 3.72533 18.7067 3.0217 18.7067 2.20683C18.7067 0.988037 17.7187 0 16.4999 0C15.281 0 14.2931 0.988037 14.2931 2.20683C14.2931 3.02163 14.7395 3.72526 15.3965 4.10759V17.2579C16.0775 17.0406 16.8249 16.8012 17.6033 16.5513V11.0242C18.082 10.784 18.4683 10.3957 18.7052 9.91506C19.089 10.571 19.8186 11.0363 20.6319 11.0363C21.4568 11.0363 22.1674 10.5783 22.546 9.90802C23.8387 11.2007 26.2414 11.2256 27.534 9.93299L25.6589 8.05788L26.5191 8.41421C28.2081 9.11384 30.1445 8.31173 30.8442 6.62268L28.1804 5.51927C30.761 5.5192 31.9476 3.89987 31.9476 2.20896Z" fill="#E74040"/>
</g>
</g>
<g clip-path="url(#clip7_0_115)">
<g clip-path="url(#clip8_0_115)">
<path d="M12.1607 3.82135C11.2037 2.86427 10.0913 2.20898 8.60884 2.20898H1.05212C1.05212 3.89983 2.23878 5.51922 4.81938 5.51922L2.15554 6.62263C2.85524 8.31168 4.79166 9.11373 6.48071 8.41416L7.34089 8.05783L5.46577 9.93294C6.75842 11.2257 9.1611 11.2008 10.4538 9.90798C10.8324 10.5783 11.543 11.0363 12.3679 11.0363C12.376 11.0363 12.3842 11.0362 12.3923 11.0361C13.4705 11.0239 14.2946 10.05 14.2946 8.9718V6.75187C13.4249 6.03831 12.9268 4.58739 12.1607 3.82135Z" fill="#E74040"/>
</g>
</g>
</g>
<defs>
<clipPath id="clip0_0_115">
<rect width="32" height="32" fill="white" transform="translate(0.5)"/>
</clipPath>
<clipPath id="clip1_0_115">
<rect width="4.75568" height="7.03818" fill="white" transform="translate(8.91312 12.1965)"/>
</clipPath>
<clipPath id="clip2_0_115">
<rect width="4.75568" height="7.03818" fill="white" transform="translate(8.91312 12.1965)"/>
</clipPath>
<clipPath id="clip3_0_115">
<rect width="13.668" height="19.8036" fill="white" transform="translate(10.439 12.1964)"/>
</clipPath>
<clipPath id="clip4_0_115">
<rect width="13.668" height="19.8036" fill="white" transform="translate(10.439 12.1964)"/>
</clipPath>
<clipPath id="clip5_0_115">
<rect width="17.6546" height="17.2579" fill="white" transform="translate(14.2931)"/>
</clipPath>
<clipPath id="clip6_0_115">
<rect width="17.6546" height="17.2579" fill="white" transform="translate(14.2931)"/>
</clipPath>
<clipPath id="clip7_0_115">
<rect width="13.2425" height="8.8273" fill="white" transform="translate(1.05212 2.20898)"/>
</clipPath>
<clipPath id="clip8_0_115">
<rect width="13.2425" height="8.8273" fill="white" transform="translate(1.05212 2.20898)"/>
</clipPath>
</defs>
</svg>
