<svg width="33" height="32" viewBox="0 0 33 32" fill="none" xmlns="http://www.w3.org/2000/svg">
<g clip-path="url(#clip0_0_104)">
<path d="M6.84838 32H26.1516C27.3003 32 28.2565 31.1215 28.2565 30.0419V6.62855C28.2565 5.54866 27.3003 4.66089 26.1516 4.66089H22.9696V6.44866C22.9742 6.75899 22.7294 7.01578 22.4193 7.02611H10.5429C10.2266 7.0185 9.97121 6.76496 9.96088 6.44866V4.66089H6.84838C5.69974 4.66089 4.74349 5.54866 4.74349 6.62855V30.0419C4.74349 31.1215 5.69974 32 6.84838 32ZM11.1435 14.0522C11.1435 13.7449 11.3927 13.4957 11.7 13.4957H14.5522V10.6435C14.5522 10.3362 14.8014 10.087 15.1087 10.087H17.8913C18.1987 10.087 18.4478 10.3362 18.4478 10.6435V13.4957H21.3C21.6073 13.4957 21.8565 13.7449 21.8565 14.0522V16.8348C21.8565 17.1421 21.6073 17.3913 21.3 17.3913H18.4478V20.2435C18.4478 20.5508 18.1987 20.8 17.8913 20.8H15.1087C14.8014 20.8 14.5522 20.5508 14.5522 20.2435V17.3913H11.7C11.3927 17.3913 11.1435 17.1421 11.1435 16.8348V14.0522ZM11.3701 23.6522H21.6299C21.9375 23.6522 22.1864 23.9014 22.1864 24.2087C22.1864 24.5161 21.9375 24.7652 21.6299 24.7652H11.3701C11.0625 24.7652 10.8136 24.5161 10.8136 24.2087C10.8136 23.9014 11.0625 23.6522 11.3701 23.6522ZM9.28317 26.4348H23.7169C24.0245 26.4348 24.2734 26.684 24.2734 26.9913C24.2734 27.2987 24.0245 27.5478 23.7169 27.5478H9.28317C8.97556 27.5478 8.72664 27.2987 8.72664 26.9913C8.72664 26.684 8.97556 26.4348 9.28317 26.4348Z" fill="#E74040"/>
<path d="M21.8565 2.15652H19.2522C18.9902 2.15625 18.7636 1.97337 18.7084 1.71712C18.4932 0.722556 17.5486 1.23676e-06 16.4622 1.23676e-06H16.4554C15.3981 -0.00108572 14.4745 0.714403 14.2114 1.73832C14.1481 1.98424 13.9264 2.15625 13.6723 2.15652H11.0739V5.91304H21.8565V2.15652Z" fill="#E74040"/>
<path d="M15.6652 16.8347V19.6869H17.3348V16.8347C17.3348 16.5274 17.584 16.2782 17.8913 16.2782H20.7435V14.6086H17.8913C17.584 14.6086 17.3348 14.3595 17.3348 14.0521V11.2H15.6652V14.0521C15.6652 14.3595 15.416 14.6086 15.1087 14.6086H12.2565V16.2782H15.1087C15.416 16.2782 15.6652 16.5274 15.6652 16.8347Z" fill="#E74040"/>
</g>
<defs>
<clipPath id="clip0_0_104">
<rect width="32" height="32" fill="white" transform="translate(0.5)"/>
</clipPath>
</defs>
</svg>
