<svg width="33" height="30" viewBox="0 0 33 30" fill="none" xmlns="http://www.w3.org/2000/svg">
<g clip-path="url(#clip0_0_84)">
<path d="M16.4909 3.21824C9.5159 -2.88242 0.64726 2.4778 0.501834 9.74443C0.464774 11.5964 0.999358 13.4003 2.06346 15.0633H8.96069L10.1875 13.0186C10.5437 12.425 11.4058 12.4059 11.7822 12.9977L14.3705 17.0651L18.1436 9.09998C18.4726 8.40497 19.4532 8.38291 19.8161 9.05686L23.0504 15.0633H30.9184C36.7468 5.95403 25.2279 -4.42336 16.4909 3.21824V3.21824Z" fill="#E74040"/>
<path d="M21.6651 16.4452L19.0443 11.578L15.3383 19.4018C15.023 20.0674 14.0956 20.1252 13.7002 19.5038L11.0148 15.2839L10.2953 16.4831C10.1259 16.7654 9.82075 16.9382 9.49146 16.9382H3.54642C3.73278 17.1332 2.73954 16.142 15.8297 29.1644C16.1953 29.5281 16.7863 29.5282 17.152 29.1644C30.0408 16.3423 29.2493 17.1328 29.4353 16.9382H22.4905C22.1456 16.9382 21.8286 16.7489 21.6651 16.4452V16.4452Z" fill="#E74040"/>
</g>
<defs>
<clipPath id="clip0_0_84">
<rect width="32" height="28.8744" fill="white" transform="translate(0.500031 0.562744)"/>
</clipPath>
</defs>
</svg>
